<svg width="167" height="30" viewBox="0 0 167 30" fill="none" xmlns="http://www.w3.org/2000/svg">
<path d="M12.0132 19.144V7.912H7.81319V19.048C7.81319 20.68 6.87719 21.4 5.58119 21.4C4.64519 21.4 4.21319 21.064 3.68519 20.536L0.925187 23.272C2.31719 24.664 3.58919 25.144 5.58119 25.144C8.79719 25.144 12.0132 23.2 12.0132 19.144ZM19.4202 25V7.912H15.2202V25H19.4202ZM36.8283 25L30.6123 7.912H27.3723L21.1562 25H25.5483L26.3883 22.456H31.6443L32.4363 25H36.8283ZM30.5403 18.952H27.5643L29.1003 14.392L30.5403 18.952ZM51.9079 25V7.912H47.7079V16.504L42.2359 7.912H38.5639V25H42.7639V16.408L48.2359 25H51.9079ZM66.9846 11.656V7.912H55.3686V25H59.5686V18.4H65.9046V14.656H59.5686V11.656H66.9846ZM81.2815 25V21.256H73.8655V18.256H80.2015V14.512H73.8655V11.656H81.2815V7.912H69.6655V25H81.2815ZM97.6111 25V7.912H93.4111V16.504L87.9391 7.912H84.2671V25H88.4671V16.408L93.9391 25H97.6111ZM113.696 17.536V15.16H107V18.664H109.52V18.904C109.52 19.552 109.352 20.248 108.872 20.728C108.488 21.136 107.888 21.4 107 21.4C106.232 21.4 105.656 21.088 105.344 20.68C104.96 20.176 104.72 19.576 104.72 16.456C104.72 13.336 104.96 12.76 105.344 12.256C105.656 11.848 106.232 11.512 107 11.512C108.44 11.512 109.112 12.136 109.448 13.432H113.672C113.264 10.624 111.392 7.768 107 7.768C104.936 7.768 103.496 8.416 102.272 9.64C100.52 11.392 100.52 13.576 100.52 16.456C100.52 19.336 100.52 21.52 102.272 23.272C103.496 24.496 104.936 25.144 107 25.144C108.872 25.144 110.504 24.736 111.968 23.224C113.264 21.904 113.696 20.296 113.696 17.536Z" fill="#454C54"/>
<path d="M123.28 16L128.56 24.64H118L123.28 16Z" fill="#00FFC3"/>
<path d="M150.947 7.912H146.555L144.323 16.936L141.563 7.912H138.587L135.827 16.936L133.595 7.912H129.203L133.907 25H137.315L140.075 16.576L142.835 25H146.267L150.947 7.912ZM165.353 19V7.912H161.153V18.904C161.153 20.488 160.241 21.4 158.849 21.4C157.457 21.4 156.593 20.488 156.593 18.904V7.912H152.393V19C152.393 22.744 155.297 25.144 158.849 25.144C162.401 25.144 165.353 22.744 165.353 19Z" fill="#454C54"/>
</svg>
