<svg width="300" height="300" viewBox="0 0 300 300" fill="none" xmlns="http://www.w3.org/2000/svg">
<path d="M235 118.393V204.214C235 208.136 233.41 211.897 230.581 214.669C227.751 217.442 223.913 219 219.912 219H79.0883C75.0866 219 71.2489 217.442 68.4193 214.669C65.5897 211.897 64 208.136 64 204.214V118.393L126.732 170.513C133.092 175.798 141.161 178.698 149.5 178.698C157.839 178.698 165.908 175.798 172.268 170.513L235 118.393ZM219.912 81C221.75 81.002 223.573 81.3292 225.293 81.966C227.766 82.8888 229.945 84.4362 231.61 86.451C232.512 87.5346 233.254 88.7375 233.813 90.0242C234.467 91.5422 234.869 93.1884 234.97 94.9183L235 95.7857V100.714L159.292 163.997C156.687 166.175 153.403 167.42 149.98 167.526C146.557 167.633 143.199 166.595 140.457 164.584L139.708 163.992L64 100.714V95.7857C63.9939 93.0489 64.7656 90.3645 66.2286 88.0334C67.6917 85.7022 69.7883 83.8163 72.2835 82.587C74.3932 81.5419 76.7243 80.9982 79.0883 81H219.912V81Z" fill="white"/>
</svg>
