<svg width="300" height="300" viewBox="0 0 300 300" fill="none" xmlns="http://www.w3.org/2000/svg">
<path d="M217.877 128.334C220.285 131.054 222.099 134.258 223.204 137.738C224.308 141.217 224.676 144.894 224.285 148.527L219.5 191.861C218.804 198.249 215.798 204.15 211.065 208.423C206.332 212.696 200.206 215.039 193.869 215H175.159C169.601 214.53 164.418 211.963 160.634 207.807C159.05 206.259 156.939 205.389 154.739 205.38H144.23C142.031 205.389 139.919 206.259 138.335 207.807C134.572 211.944 129.424 214.509 123.896 215H105.015C98.6782 215.039 92.5522 212.696 87.8188 208.423C83.0855 204.15 80.0803 198.249 79.3834 191.861L74.599 148.527C74.201 144.881 74.5685 141.19 75.6771 137.697C76.7858 134.205 78.6106 130.99 81.0316 128.264C83.4525 125.538 86.4148 123.363 89.7237 121.881C93.0326 120.4 96.6132 119.645 100.23 119.667H198.825C202.422 119.675 205.978 120.45 209.26 121.944C212.543 123.437 215.479 125.614 217.877 128.334Z" fill="#454C54"/>
<rect x="234.43" y="144.091" width="17.5714" height="53.1818" rx="8.78571" fill="#454C54" fill-opacity="0.5"/>
<rect x="47" y="144.091" width="17.5714" height="53.1818" rx="8.78571" fill="#454C54" fill-opacity="0.5"/>
<rect x="123.143" y="102.727" width="17.7273" height="52.7143" rx="8.86364" transform="rotate(-90 123.143 102.727)" fill="#454C54" fill-opacity="0.5"/>
</svg>
