<svg width="300" height="300" viewBox="0 0 300 300" fill="none" xmlns="http://www.w3.org/2000/svg">
<path d="M142.3 98.7647V90.8824C142.3 88.7919 143.111 86.7869 144.555 85.3087C145.999 83.8305 147.958 83 150 83C152.042 83 154.001 83.8305 155.445 85.3087C156.889 86.7869 157.7 88.7919 157.7 90.8824V98.7647H196.2C204.369 98.7647 212.203 102.087 217.979 107.999C223.755 113.912 227 121.932 227 130.294V201.235C227 203.306 226.602 205.356 225.828 207.268C225.054 209.181 223.919 210.919 222.489 212.383C221.059 213.847 219.362 215.008 217.493 215.8C215.625 216.592 213.622 217 211.6 217H206.187C199.878 217.003 193.72 215.021 188.546 211.325C171.791 199.344 158.948 193.353 150 193.353C141.053 193.353 128.209 199.344 111.454 211.325C106.282 215.02 100.128 217.001 93.821 217H88.4003C86.3779 217 84.3753 216.592 82.5069 215.8C80.6384 215.008 78.9407 213.847 77.5107 212.383C76.0806 210.919 74.9462 209.181 74.1723 207.268C73.3983 205.356 73 203.306 73 201.235V130.294C73 121.932 76.245 113.912 82.0211 107.999C87.7972 102.087 95.6314 98.7647 103.8 98.7647H142.3ZM126.9 142.118V134.235C126.905 133.197 126.709 132.168 126.325 131.207C125.94 130.246 125.373 129.373 124.658 128.637C123.942 127.901 123.092 127.317 122.155 126.918C121.219 126.52 120.214 126.315 119.2 126.315C118.186 126.315 117.181 126.52 116.245 126.918C115.308 127.317 114.458 127.901 113.742 128.637C113.027 129.373 112.46 130.246 112.075 131.207C111.691 132.168 111.495 133.197 111.5 134.235V142.118H103.8C101.764 142.128 99.8154 142.963 98.3794 144.44C96.9434 145.917 96.1373 147.916 96.1373 150C96.1373 152.084 96.9434 154.083 98.3794 155.56C99.8154 157.037 101.764 157.872 103.8 157.882H111.5V165.765C111.51 167.849 112.326 169.844 113.768 171.314C115.211 172.784 117.164 173.609 119.2 173.609C121.236 173.609 123.189 172.784 124.632 171.314C126.075 169.844 126.89 167.849 126.9 165.765V157.882H134.6C136.636 157.872 138.585 157.037 140.021 155.56C141.457 154.083 142.263 152.084 142.263 150C142.263 147.916 141.457 145.917 140.021 144.44C138.585 142.963 136.636 142.128 134.6 142.118H126.9ZM180.8 126.353C179.786 126.348 178.78 126.548 177.842 126.942C176.903 127.336 176.05 127.916 175.331 128.648C174.612 129.381 174.042 130.251 173.652 131.21C173.263 132.169 173.063 133.197 173.063 134.235C173.063 135.274 173.263 136.302 173.652 137.261C174.042 138.219 174.612 139.09 175.331 139.823C176.05 140.555 176.903 141.135 177.842 141.529C178.78 141.923 179.786 142.123 180.8 142.118C182.836 142.108 184.785 141.273 186.221 139.796C187.657 138.318 188.463 136.319 188.463 134.235C188.463 132.151 187.657 130.152 186.221 128.675C184.785 127.198 182.836 126.363 180.8 126.353ZM165.4 142.118C164.386 142.113 163.38 142.313 162.442 142.707C161.503 143.101 160.65 143.68 159.931 144.413C159.212 145.145 158.642 146.016 158.252 146.975C157.863 147.934 157.663 148.962 157.663 150C157.663 151.038 157.863 152.066 158.252 153.025C158.642 153.984 159.212 154.855 159.931 155.587C160.65 156.32 161.503 156.899 162.442 157.293C163.38 157.687 164.386 157.887 165.4 157.882C167.436 157.872 169.385 157.037 170.821 155.56C172.257 154.083 173.063 152.084 173.063 150C173.063 147.916 172.257 145.917 170.821 144.44C169.385 142.963 167.436 142.128 165.4 142.118ZM196.2 142.118C195.186 142.113 194.18 142.313 193.242 142.707C192.303 143.101 191.45 143.68 190.731 144.413C190.012 145.145 189.442 146.016 189.052 146.975C188.663 147.934 188.463 148.962 188.463 150C188.463 151.038 188.663 152.066 189.052 153.025C189.442 153.984 190.012 154.855 190.731 155.587C191.45 156.32 192.303 156.899 193.242 157.293C194.18 157.687 195.186 157.887 196.2 157.882C198.236 157.872 200.185 157.037 201.621 155.56C203.057 154.083 203.863 152.084 203.863 150C203.863 147.916 203.057 145.917 201.621 144.44C200.185 142.963 198.236 142.128 196.2 142.118ZM180.8 157.882C179.789 157.882 178.788 158.086 177.853 158.482C176.919 158.878 176.07 159.459 175.355 160.191C174.64 160.923 174.073 161.792 173.686 162.748C173.299 163.705 173.1 164.73 173.1 165.765C173.1 166.8 173.299 167.825 173.686 168.781C174.073 169.738 174.64 170.606 175.355 171.338C176.07 172.07 176.919 172.651 177.853 173.047C178.788 173.443 179.789 173.647 180.8 173.647C182.842 173.647 184.801 172.817 186.245 171.338C187.689 169.86 188.5 167.855 188.5 165.765C188.5 163.674 187.689 161.669 186.245 160.191C184.801 158.713 182.842 157.882 180.8 157.882Z" fill="white"/>
</svg>
