<svg width="300" height="300" viewBox="0 0 300 300" fill="none" xmlns="http://www.w3.org/2000/svg">
<path d="M237 117.935V205C237 208.978 235.382 212.794 232.503 215.607C229.624 218.42 225.719 220 221.647 220H78.353C74.2811 220 70.376 218.42 67.4968 215.607C64.6176 212.794 63 208.978 63 205V117.935L126.832 170.81C133.305 176.172 141.515 179.114 150 179.114C158.485 179.114 166.695 176.172 173.168 170.81L237 117.935ZM221.647 80C223.518 80.002 225.373 80.334 227.123 80.98C229.639 81.9162 231.856 83.486 233.551 85.53C234.469 86.6293 235.223 87.8496 235.792 89.155C236.458 90.695 236.867 92.365 236.969 94.12L237 95V100L159.964 164.2C157.313 166.41 153.971 167.672 150.488 167.78C147.005 167.888 143.588 166.836 140.798 164.795L140.036 164.195L63 100V95C62.9938 92.2236 63.779 89.5003 65.2677 87.1353C66.7564 84.7703 68.8898 82.8571 71.4288 81.61C73.5755 80.5498 75.9476 79.9982 78.353 80H221.647V80Z" fill="#454C54"/>
</svg>
