<svg width="300" height="300" viewBox="0 0 300 300" fill="none" xmlns="http://www.w3.org/2000/svg">
<path d="M220.175 92H79.825C74.4225 92 70 96.3139 70 101.584V197.416C70 202.686 74.4225 207 79.825 207H220.175C225.577 207 230 202.686 230 197.416V101.584C230 96.3139 225.577 92 220.175 92ZM132.385 161.891L125.438 168.666L105.789 149.5L125.444 130.334L132.389 137.109L119.682 149.5L132.385 161.891ZM143.24 192.625L133.753 190.144L156.76 106.375L166.247 108.856L143.24 192.625ZM174.556 168.666L167.611 161.891L180.318 149.5L167.615 137.109L174.562 130.334L194.211 149.5L174.556 168.666Z" fill="#454C54"/>
</svg>
