<?xml version="1.0" encoding="UTF-8"?>
<svg width="15px" height="15px" viewBox="0 0 15 15" version="1.1" xmlns="http://www.w3.org/2000/svg" xmlns:xlink="http://www.w3.org/1999/xlink">
    <!-- Generator: Sketch 52.5 (67469) - http://www.bohemiancoding.com/sketch -->
    <title>download</title>
    <desc>Created with Sketch.</desc>
    <g id="Page-1" stroke="none" stroke-width="1" fill="none" fill-rule="evenodd">
        <g id="Web-Copy-16" transform="translate(-652.000000, -1434.000000)" fill="#000000">
            <g id="Group-8" transform="translate(109.000000, 150.000000)">
                <g id="Group-7" transform="translate(0.000000, 91.000000)">
                    <g id="Group-11" transform="translate(285.000000, 1179.000000)">
                        <g id="Group-10-Copy" transform="translate(244.000000, 0.000000)">
                            <g id="Group-9" transform="translate(14.400000, 8.400000)">
                                <g id="download" transform="translate(0.000000, 6.000000)">
                                    <path d="M7.19720466,11.0769231 L13.082378,5.60606504 C13.261912,5.44289336 13.3332644,5.20261981 13.2692058,4.97693683 C13.2051473,4.75125384 13.0155621,4.57498428 12.7727992,4.51539557 C12.5300363,4.45580686 12.2715539,4.52209354 12.0959933,4.68895949 L7.89478937,8.59423713 L7.89478937,0.648474846 C7.89478937,0.290332078 7.58247006,0 7.19720466,0 C6.81193927,0 6.49961996,0.290332078 6.49961996,0.648474846 L6.49961996,8.59423713 L2.29859046,4.68879737 C2.12235864,4.52497224 1.86549516,4.46099125 1.62475802,4.52095541 C1.38402087,4.58091957 1.19598376,4.7557189 1.13147843,4.97950818 C1.06697311,5.20329747 1.13579947,5.44207779 1.31203129,5.60590292 L7.19720466,11.0769231 Z" id="Path"></path>
                                    <path d="M13.7300807,9.96923077 C13.360187,9.96923077 13.0603288,10.2337272 13.0603288,10.56 L13.0603288,12.9297231 C13.0603288,12.9871754 13.0603288,13.0865723 13.0502826,13.1415138 L13.0291854,13.1604185 C13.0092602,13.1785846 12.9851492,13.2004431 12.964052,13.2186092 L1.69380247,13.2186092 C1.64256645,13.2063508 1.53038301,13.1528862 1.47177973,13.1011938 C1.41367875,13.0497969 1.35340108,12.9511385 1.33950373,12.9060923 L1.33950373,10.56 C1.33950373,10.2337272 1.03964561,9.96923077 0.669751866,9.96923077 C0.299858124,9.96923077 0,10.2337272 0,10.56 L0,12.9230769 C0,13.3039754 0.263882235,13.70688 0.525085463,13.9368369 C0.786791005,14.1673846 1.24356178,14.4 1.6745471,14.4 L13.0603288,14.4 C13.5311644,14.4 13.8181531,14.1394708 13.989777,13.9839508 L14.0416828,13.93728 C14.4001674,13.6218092 14.4,13.1716431 14.4,12.9232246 L14.4,10.56 C14.3998152,10.2337371 14.0999633,9.96931225 13.7300807,9.96923077 Z" id="Path"></path>
                                </g>
                            </g>
                        </g>
                    </g>
                </g>
            </g>
        </g>
    </g>
</svg>